<svg width="32" height="32" viewBox="0 0 32 32" fill="none" xmlns="http://www.w3.org/2000/svg">
<path d="M16 21.8178C12.7922 21.8178 10.1825 19.2079 10.1825 16C10.1825 12.7921 12.7922 10.1823 16 10.1823C19.2077 10.1823 21.8175 12.7921 21.8175 16C21.8175 19.2079 19.2077 21.8178 16 21.8178ZM16 12.4948C14.0673 12.4948 12.495 14.0672 12.495 16C12.495 17.9328 14.0673 19.5053 16 19.5053C17.9327 19.5053 19.505 17.9328 19.505 16C19.505 14.0672 17.9327 12.4948 16 12.4948Z" fill="#AAAAAA"/>
<path d="M16 8.9115C15.3614 8.9115 14.8437 8.39381 14.8437 7.75525V6.16237C14.8437 5.52381 15.3614 5.00612 16 5.00612C16.6385 5.00612 17.1562 5.52381 17.1562 6.16237V7.75525C17.1562 8.39381 16.6385 8.9115 16 8.9115ZM10.9877 10.9877C11.4392 10.5361 11.4392 9.80406 10.9877 9.3525L9.86135 8.22619C9.40979 7.77462 8.67773 7.77462 8.22617 8.22619C7.7746 8.67775 7.7746 9.40981 8.22617 9.86137L9.35248 10.9877C9.57823 11.2134 9.87417 11.3263 10.1701 11.3263C10.466 11.3263 10.7619 11.2134 10.9877 10.9877ZM8.91148 16C8.91148 15.3614 8.39379 14.8438 7.75523 14.8438H6.16235C5.52379 14.8438 5.0061 15.3614 5.0061 16C5.0061 16.6386 5.52379 17.1562 6.16235 17.1562H7.75523C8.39379 17.1562 8.91148 16.6386 8.91148 16ZM9.86135 23.7738L10.9877 22.6475C11.4392 22.1959 11.4392 21.4639 10.9877 21.0123C10.5361 20.5607 9.80404 20.5608 9.35248 21.0124L8.22617 22.1387C7.7746 22.5903 7.7746 23.3223 8.22617 23.7739C8.45198 23.9996 8.74785 24.1125 9.04379 24.1125C9.33973 24.1125 9.63554 23.9996 9.86135 23.7738ZM17.1562 25.8376V24.2447C17.1562 23.6062 16.6385 23.0885 16 23.0885C15.3614 23.0885 14.8437 23.6062 14.8437 24.2447V25.8376C14.8437 26.4762 15.3614 26.9938 16 26.9938C16.6385 26.9938 17.1562 26.4762 17.1562 25.8376ZM23.7738 23.7738C24.2254 23.3223 24.2254 22.5902 23.7738 22.1387L22.6475 21.0124C22.1959 20.5608 21.4639 20.5608 21.0124 21.0124C20.5607 21.4639 20.5607 22.196 21.0124 22.6475L22.1387 23.7738C22.3644 23.9996 22.6604 24.1125 22.9562 24.1125C23.2521 24.1125 23.548 23.9996 23.7738 23.7738ZM26.9938 16C26.9938 15.3614 26.4762 14.8438 25.8375 14.8438H24.2447C23.6062 14.8438 23.0885 15.3614 23.0885 16C23.0885 16.6386 23.6062 17.1562 24.2447 17.1562H25.8375C26.4762 17.1562 26.9938 16.6386 26.9938 16ZM22.6474 10.9877L23.7737 9.86137C24.2253 9.40981 24.2254 8.67775 23.7738 8.22619C23.3222 7.77462 22.5901 7.77462 22.1386 8.22619L21.0123 9.3525C20.5607 9.80406 20.5607 10.5361 21.0122 10.9877C21.1195 11.0952 21.2469 11.1805 21.3872 11.2386C21.5276 11.2968 21.678 11.3266 21.8299 11.3264C21.9817 11.3266 22.1321 11.2967 22.2724 11.2386C22.4127 11.1805 22.5402 11.0952 22.6474 10.9877Z" fill="#AAAAAA"/>
</svg>
