<svg width="32" height="32" viewBox="0 0 32 32" fill="none" xmlns="http://www.w3.org/2000/svg">
<path d="M16 6.66667C19.0058 6.66667 21.8885 7.86071 24.0139 9.98612C26.1393 12.1115 27.3334 14.9942 27.3334 18C27.3334 21.0058 26.1393 23.8885 24.0139 26.0139C21.8885 28.1393 19.0058 29.3333 16 29.3333C12.9942 29.3333 10.1116 28.1393 7.98614 26.0139C5.86073 23.8885 4.66669 21.0058 4.66669 18C4.66669 14.9942 5.86073 12.1115 7.98614 9.98612C10.1116 7.86071 12.9942 6.66667 16 6.66667V6.66667ZM16 8.66667C13.5247 8.66667 11.1507 9.65 9.40036 11.4003C7.65002 13.1507 6.66669 15.5246 6.66669 18C6.66669 20.4754 7.65002 22.8493 9.40036 24.5997C11.1507 26.35 13.5247 27.3333 16 27.3333C18.4754 27.3333 20.8493 26.35 22.5997 24.5997C24.35 22.8493 25.3334 20.4754 25.3334 18C25.3334 15.5246 24.35 13.1507 22.5997 11.4003C20.8493 9.65 18.4754 8.66667 16 8.66667V8.66667ZM16 10.6667C16.2417 10.6667 16.4751 10.7542 16.6573 10.913C16.8394 11.0719 16.9578 11.2913 16.9907 11.5307L17 11.6667V17.6667C16.9999 17.92 16.9037 18.1639 16.7307 18.3491C16.5578 18.5342 16.321 18.6468 16.0682 18.664C15.8154 18.6813 15.5655 18.602 15.369 18.4421C15.1724 18.2822 15.0439 18.0537 15.0094 17.8027L15 17.6667V11.6667C15 11.4015 15.1054 11.1471 15.2929 10.9596C15.4805 10.772 15.7348 10.6667 16 10.6667V10.6667ZM25.5294 6.81867L25.64 6.89867L27.184 8.184C27.3774 8.34659 27.502 8.57633 27.5329 8.82705C27.5638 9.07777 27.4986 9.33089 27.3505 9.53554C27.2024 9.7402 26.9824 9.88122 26.7346 9.93028C26.4868 9.97934 26.2296 9.93279 26.0147 9.8L25.9054 9.72L24.36 8.43467C24.1667 8.27207 24.0421 8.04233 24.0112 7.79161C23.9803 7.5409 24.0454 7.28778 24.1935 7.08313C24.3416 6.87847 24.5617 6.73745 24.8095 6.68839C25.0573 6.63933 25.3145 6.68587 25.5294 6.81867V6.81867ZM19 3.33333C19.2534 3.33341 19.4973 3.42966 19.6824 3.60263C19.8675 3.7756 19.9801 4.0124 19.9974 4.26517C20.0147 4.51795 19.9353 4.76786 19.7754 4.9644C19.6156 5.16094 19.387 5.28946 19.136 5.324L19 5.33333H13C12.7467 5.33326 12.5028 5.23701 12.3176 5.06404C12.1325 4.89107 12.0199 4.65427 12.0027 4.40149C11.9854 4.14872 12.0647 3.89881 12.2246 3.70227C12.3845 3.50573 12.613 3.3772 12.864 3.34267L13 3.33333H19Z" fill="#AAAAAA"/>
</svg>
