<svg width="32" height="32" viewBox="0 0 32 32" fill="none" xmlns="http://www.w3.org/2000/svg">
<path d="M29.8656 26.75L16.8656 4.25C16.6719 3.91563 16.3375 3.75 16 3.75C15.6625 3.75 15.325 3.91563 15.1344 4.25L2.13437 26.75C1.75 27.4188 2.23125 28.25 3 28.25H29C29.7687 28.25 30.25 27.4188 29.8656 26.75ZM15 13C15 12.8625 15.1125 12.75 15.25 12.75H16.75C16.8875 12.75 17 12.8625 17 13V18.75C17 18.8875 16.8875 19 16.75 19H15.25C15.1125 19 15 18.8875 15 18.75V13ZM16 24C15.6075 23.992 15.2337 23.8304 14.959 23.55C14.6842 23.2696 14.5303 22.8926 14.5303 22.5C14.5303 22.1074 14.6842 21.7304 14.959 21.45C15.2337 21.1696 15.6075 21.008 16 21C16.3925 21.008 16.7663 21.1696 17.041 21.45C17.3158 21.7304 17.4697 22.1074 17.4697 22.5C17.4697 22.8926 17.3158 23.2696 17.041 23.55C16.7663 23.8304 16.3925 23.992 16 24Z" fill="#FF3333"/>
</svg>
