<svg width="32" height="32" viewBox="0 0 32 32" fill="none" xmlns="http://www.w3.org/2000/svg">
<path d="M22.6667 8C23.7276 8 24.745 8.42143 25.4951 9.17157C26.2453 9.92172 26.6667 10.9391 26.6667 12V13.3333H28C28.3536 13.3333 28.6928 13.4738 28.9428 13.7239C29.1929 13.9739 29.3334 14.313 29.3334 14.6667V17.3333C29.3334 17.687 29.1929 18.0261 28.9428 18.2761C28.6928 18.5262 28.3536 18.6667 28 18.6667H26.6667V20C26.6667 21.0609 26.2453 22.0783 25.4951 22.8284C24.745 23.5786 23.7276 24 22.6667 24H6.66669C5.60582 24 4.58841 23.5786 3.83826 22.8284C3.08811 22.0783 2.66669 21.0609 2.66669 20V12C2.66669 10.9391 3.08811 9.92172 3.83826 9.17157C4.58841 8.42143 5.60582 8 6.66669 8H22.6667ZM22.664 10H6.66669C6.16928 9.99969 5.68961 10.1847 5.32129 10.519C4.95297 10.8533 4.72244 11.3129 4.67469 11.808L4.66669 12V20C4.66668 20.497 4.8517 20.9761 5.18569 21.3441C5.51968 21.7121 5.97871 21.9426 6.47335 21.9907L6.66669 22H22.664C23.161 22 23.6402 21.815 24.0082 21.481C24.3762 21.147 24.6066 20.688 24.6547 20.1933L24.664 20V12C24.664 11.503 24.479 11.0239 24.145 10.6559C23.811 10.2879 23.352 10.0574 22.8574 10.0093L22.664 10ZM8.00002 12H16C16.3266 12 16.6418 12.1199 16.8859 12.337C17.1299 12.554 17.2858 12.853 17.324 13.1773L17.3334 13.3333V18.6667C17.3333 18.9932 17.2134 19.3085 16.9964 19.5525C16.7794 19.7965 16.4804 19.9525 16.156 19.9907L16 20H8.00002C7.67321 20.0003 7.35768 19.8805 7.11336 19.6635C6.86903 19.4464 6.71292 19.1472 6.67469 18.8227L6.66669 18.6667V13.3333C6.66673 13.0068 6.78663 12.6916 7.00364 12.4475C7.22065 12.2035 7.51969 12.0475 7.84402 12.0093L8.00002 12H16H8.00002Z" fill="#AAAAAA"/>
</svg>
