<svg width="32" height="32" viewBox="0 0 32 32" fill="none" xmlns="http://www.w3.org/2000/svg">
<path d="M14.3334 8H22.6667C23.687 7.99994 24.6687 8.38977 25.411 9.08971C26.1534 9.78966 26.6002 10.7468 26.66 11.7653L26.6667 12V13.3333L28 13.3573C28.3258 13.3572 28.6403 13.4764 28.8842 13.6923C29.1282 13.9082 29.2846 14.206 29.324 14.5293L29.3347 14.6893V17.356C29.335 17.6789 29.2182 17.991 29.0058 18.2342C28.7934 18.4775 28.5 18.6354 28.18 18.6787L28.0014 18.6907L26.6667 18.6667V20C26.6667 21.0203 26.2769 22.002 25.577 22.7443C24.877 23.4867 23.9199 23.9335 22.9014 23.9933L22.6667 24H10.664C10.4107 23.9999 10.1668 23.9037 9.98163 23.7307C9.7965 23.5577 9.68392 23.3209 9.66665 23.0682C9.64938 22.8154 9.72871 22.5655 9.8886 22.3689C10.0485 22.1724 10.277 22.0439 10.528 22.0093L10.664 22H22.6667C23.1637 22 23.6428 21.815 24.0108 21.481C24.3788 21.147 24.6093 20.688 24.6574 20.1933L24.6667 20V12C24.6667 11.503 24.4817 11.0239 24.1477 10.6559C23.8137 10.2879 23.3547 10.0574 22.86 10.0093L22.6667 10H14.3334C14.08 9.99992 13.8361 9.90367 13.651 9.7307C13.4658 9.55773 13.3533 9.32094 13.336 9.06816C13.3187 8.81538 13.398 8.56548 13.5579 8.36893C13.7178 8.17239 13.9464 8.04387 14.1974 8.00933L14.3334 8H22.6667H14.3334ZM8.33469 14.664V23C8.33233 23.2518 8.23507 23.4934 8.06235 23.6766C7.88962 23.8598 7.65414 23.9711 7.40294 23.9883C7.15173 24.0055 6.90329 23.9273 6.70724 23.7693C6.51119 23.6113 6.38196 23.3851 6.34535 23.136L6.33602 23V14.664H5.00002C4.38141 14.664 3.78812 14.4184 3.35058 13.9811C2.91303 13.5438 2.66704 12.9506 2.66669 12.332V9C2.66669 8.73478 2.77204 8.48043 2.95958 8.29289C3.14712 8.10536 3.40147 8 3.66669 8H4.66802V6.33333C4.66803 6.09168 4.75554 5.85821 4.91438 5.67609C5.07321 5.49397 5.29262 5.37553 5.53202 5.34267L5.66802 5.33333C5.90967 5.33334 6.14314 5.42086 6.32526 5.57969C6.50738 5.73852 6.62582 5.95793 6.65869 6.19733L6.66802 6.33333V8H7.99469V6.33333C7.99478 6.09128 8.08267 5.85748 8.24205 5.6753C8.40142 5.49313 8.62146 5.37494 8.86135 5.34267L8.99469 5.33333C9.23657 5.33302 9.47036 5.42039 9.65276 5.57925C9.83516 5.73811 9.95379 5.9577 9.98669 6.19733L9.99602 6.33333L9.99469 8H11.0054C11.2706 8 11.5249 8.10536 11.7125 8.29289C11.9 8.48043 12.0054 8.73478 12.0054 9V12.332C12.0054 12.9508 11.7595 13.5443 11.3219 13.9819C10.8844 14.4195 10.2909 14.6653 9.67202 14.6653L8.33469 14.664V23V14.664ZM10.0054 10H4.66669V12.332C4.66669 12.516 4.81602 12.6653 5.00002 12.6653H9.67202C9.76043 12.6653 9.84521 12.6302 9.90772 12.5677C9.97023 12.5052 10.0054 12.4204 10.0054 12.332V10Z" fill="#AAAAAA"/>
</svg>
