<svg width="32" height="32" viewBox="0 0 32 32" fill="none" xmlns="http://www.w3.org/2000/svg">
<path d="M16 2.66667C13.3629 2.66667 10.7851 3.44865 8.59242 4.91374C6.39977 6.37882 4.6908 8.46121 3.68163 10.8976C2.67246 13.3339 2.40842 16.0148 2.92289 18.6012C3.43736 21.1876 4.70724 23.5634 6.57194 25.4281C8.43664 27.2928 10.8124 28.5627 13.3988 29.0771C15.9852 29.5916 18.6661 29.3276 21.1025 28.3184C23.5388 27.3092 25.6212 25.6003 27.0863 23.4076C28.5514 21.2149 29.3334 18.6371 29.3334 16C29.3334 14.249 28.9885 12.5152 28.3184 10.8976C27.6484 9.27988 26.6662 7.81002 25.4281 6.57191C24.19 5.33379 22.7201 4.35167 21.1025 3.68161C19.4848 3.01154 17.751 2.66667 16 2.66667ZM16 26.6667C13.8904 26.6667 11.8281 26.0411 10.0739 24.869C8.31982 23.6969 6.95265 22.031 6.14531 20.082C5.33798 18.1329 5.12674 15.9882 5.53832 13.919C5.94989 11.8499 6.96579 9.94929 8.45755 8.45753C9.94931 6.96577 11.8499 5.94987 13.9191 5.53829C15.9882 5.12671 18.1329 5.33795 20.082 6.14528C22.0311 6.95262 23.697 8.31979 24.869 10.0739C26.0411 11.828 26.6667 13.8903 26.6667 16C26.6667 18.829 25.5429 21.5421 23.5425 23.5425C21.5421 25.5429 18.829 26.6667 16 26.6667Z" fill="#AAAAAA"/>
<path d="M21.3334 14.6667H17.3334V10.6667C17.3334 10.313 17.1929 9.97391 16.9428 9.72386C16.6928 9.47381 16.3536 9.33333 16 9.33333C15.6464 9.33333 15.3073 9.47381 15.0572 9.72386C14.8072 9.97391 14.6667 10.313 14.6667 10.6667V16C14.6667 16.3536 14.8072 16.6928 15.0572 16.9428C15.3073 17.1929 15.6464 17.3333 16 17.3333H21.3334C21.687 17.3333 22.0261 17.1929 22.2762 16.9428C22.5262 16.6928 22.6667 16.3536 22.6667 16C22.6667 15.6464 22.5262 15.3072 22.2762 15.0572C22.0261 14.8071 21.687 14.6667 21.3334 14.6667Z" fill="#AAAAAA"/>
</svg>
