<svg width="32" height="32" viewBox="0 0 32 32" fill="none" xmlns="http://www.w3.org/2000/svg">
<path d="M28.6666 5.33333H25.7778V7.11111H28.4444V26.6667H3.55553V7.11111H6.2222V5.33333H3.33331C3.12552 5.33681 2.92045 5.38118 2.72981 5.46392C2.53918 5.54666 2.36671 5.66614 2.22225 5.81555C2.0778 5.96495 1.9642 6.14135 1.88793 6.33467C1.81166 6.52799 1.77422 6.73443 1.77776 6.94222V26.8356C1.77422 27.0433 1.81166 27.2498 1.88793 27.4431C1.9642 27.6364 2.0778 27.8128 2.22225 27.9622C2.36671 28.1116 2.53918 28.2311 2.72981 28.3139C2.92045 28.3966 3.12552 28.441 3.33331 28.4444H28.6666C28.8744 28.441 29.0795 28.3966 29.2701 28.3139C29.4608 28.2311 29.6332 28.1116 29.7777 27.9622C29.9222 27.8128 30.0358 27.6364 30.112 27.4431C30.1883 27.2498 30.2257 27.0433 30.2222 26.8356V6.94222C30.2257 6.73443 30.1883 6.52799 30.112 6.33467C30.0358 6.14135 29.9222 5.96495 29.7777 5.81555C29.6332 5.66614 29.4608 5.54666 29.2701 5.46392C29.0795 5.38118 28.8744 5.33681 28.6666 5.33333Z" fill="#AAAAAA"/>
<path d="M7.11108 12.4444H8.88886V14.2222H7.11108V12.4444Z" fill="#AAAAAA"/>
<path d="M12.4445 12.4444H14.2222V14.2222H12.4445V12.4444Z" fill="#AAAAAA"/>
<path d="M17.7778 12.4444H19.5555V14.2222H17.7778V12.4444Z" fill="#AAAAAA"/>
<path d="M23.1111 12.4444H24.8889V14.2222H23.1111V12.4444Z" fill="#AAAAAA"/>
<path d="M7.11108 16.8889H8.88886V18.6667H7.11108V16.8889Z" fill="#AAAAAA"/>
<path d="M12.4445 16.8889H14.2222V18.6667H12.4445V16.8889Z" fill="#AAAAAA"/>
<path d="M17.7778 16.8889H19.5555V18.6667H17.7778V16.8889Z" fill="#AAAAAA"/>
<path d="M23.1111 16.8889H24.8889V18.6667H23.1111V16.8889Z" fill="#AAAAAA"/>
<path d="M7.11108 21.3333H8.88886V23.1111H7.11108V21.3333Z" fill="#AAAAAA"/>
<path d="M12.4445 21.3333H14.2222V23.1111H12.4445V21.3333Z" fill="#AAAAAA"/>
<path d="M17.7778 21.3333H19.5555V23.1111H17.7778V21.3333Z" fill="#AAAAAA"/>
<path d="M23.1111 21.3333H24.8889V23.1111H23.1111V21.3333Z" fill="#AAAAAA"/>
<path d="M8.88889 8.88889C9.12464 8.88889 9.35073 8.79524 9.51743 8.62854C9.68413 8.46184 9.77778 8.23575 9.77778 8V2.66667C9.77778 2.43092 9.68413 2.20483 9.51743 2.03813C9.35073 1.87143 9.12464 1.77778 8.88889 1.77778C8.65314 1.77778 8.42705 1.87143 8.26035 2.03813C8.09365 2.20483 8 2.43092 8 2.66667V8C8 8.23575 8.09365 8.46184 8.26035 8.62854C8.42705 8.79524 8.65314 8.88889 8.88889 8.88889Z" fill="#AAAAAA"/>
<path d="M23.1111 8.88889C23.3469 8.88889 23.573 8.79524 23.7397 8.62854C23.9064 8.46184 24 8.23575 24 8V2.66667C24 2.43092 23.9064 2.20483 23.7397 2.03813C23.573 1.87143 23.3469 1.77778 23.1111 1.77778C22.8754 1.77778 22.6493 1.87143 22.4826 2.03813C22.3159 2.20483 22.2222 2.43092 22.2222 2.66667V8C22.2222 8.23575 22.3159 8.46184 22.4826 8.62854C22.6493 8.79524 22.8754 8.88889 23.1111 8.88889Z" fill="#AAAAAA"/>
<path d="M11.5555 5.33333H20.4444V7.11111H11.5555V5.33333Z" fill="#AAAAAA"/>
</svg>
