<svg width="32" height="32" viewBox="0 0 32 32" fill="none" xmlns="http://www.w3.org/2000/svg">
<path d="M22.6667 8C23.7276 8 24.745 8.42143 25.4951 9.17157C26.2453 9.92172 26.6667 10.9391 26.6667 12V13.3333H28C28.3536 13.3333 28.6928 13.4738 28.9428 13.7239C29.1929 13.9739 29.3334 14.313 29.3334 14.6667V17.3333C29.3334 17.687 29.1929 18.0261 28.9428 18.2761C28.6928 18.5262 28.3536 18.6667 28 18.6667H26.6667V20C26.6667 21.0609 26.2453 22.0783 25.4951 22.8284C24.745 23.5786 23.7276 24 22.6667 24H6.66669C5.60582 24 4.58841 23.5786 3.83826 22.8284C3.08811 22.0783 2.66669 21.0609 2.66669 20V12C2.66669 10.9391 3.08811 9.92172 3.83826 9.17157C4.58841 8.42143 5.60582 8 6.66669 8H22.6667ZM22.664 10H6.66669C6.16951 10 5.69017 10.1852 5.32213 10.5195C4.95409 10.8538 4.72375 11.3131 4.67602 11.808L4.66669 12V20C4.66668 20.497 4.8517 20.9761 5.18569 21.3441C5.51968 21.7121 5.97871 21.9426 6.47335 21.9907L6.66669 22H22.664C23.161 22 23.6402 21.815 24.0082 21.481C24.3762 21.147 24.6066 20.688 24.6547 20.1933L24.664 20V12C24.664 11.503 24.479 11.0239 24.145 10.6559C23.811 10.2879 23.352 10.0574 22.8574 10.0093L22.664 10ZM8.00002 12.004L10.6667 12C10.9933 12 11.3085 12.1199 11.5525 12.337C11.7966 12.554 11.9525 12.853 11.9907 13.1773L12 13.3333V18.6667C12 18.9932 11.8801 19.3085 11.6631 19.5525C11.4461 19.7965 11.147 19.9525 10.8227 19.9907L10.6667 20L8.00002 20.004C7.67344 20.004 7.35824 19.8841 7.11419 19.667C6.87014 19.45 6.71423 19.151 6.67602 18.8267L6.66669 18.6707V13.3373C6.66673 13.0108 6.78663 12.6956 7.00364 12.4515C7.22065 12.2075 7.51969 12.0515 7.84402 12.0133L8.00002 12.004L10.6667 12L8.00002 12.004Z" fill="#AAAAAA"/>
</svg>
