<svg width="32" height="32" viewBox="0 0 32 32" fill="none" xmlns="http://www.w3.org/2000/svg">
<path d="M9.83335 5.78933C9.9278 5.64404 10.0584 5.52578 10.2123 5.44615C10.3662 5.36652 10.5382 5.32826 10.7114 5.33512C10.8845 5.34198 11.0529 5.39372 11.2001 5.48526C11.3472 5.57681 11.468 5.70502 11.5507 5.85733C13.624 9.688 14.6707 12.636 14.6707 14.7747C14.6707 17.0213 13.8574 18.7493 12.2307 19.8373C12.1217 19.915 11.9983 19.97 11.8677 19.999C11.7371 20.0281 11.602 20.0307 11.4704 20.0066C11.3388 19.9826 11.2134 19.9323 11.1016 19.8589C10.9897 19.7855 10.8938 19.6904 10.8193 19.5792C10.7449 19.468 10.6936 19.343 10.6683 19.2116C10.6431 19.0803 10.6445 18.9452 10.6724 18.8143C10.7003 18.6835 10.7542 18.5596 10.8308 18.4499C10.9075 18.3403 11.0054 18.2471 11.1187 18.176C12.156 17.4813 12.672 16.388 12.672 14.7747C12.672 13.3613 12.032 11.3093 10.7427 8.65467L10.508 8.18L10.1747 8.53867C9.68589 9.04414 9.16623 9.51883 8.61869 9.96L8.17069 10.3133L6.95335 11.2427C5.13069 12.68 4.54535 13.6333 4.68669 15.3147C4.81602 16.8453 5.68002 17.7547 7.49069 18.1493C8.31202 16.34 8.70402 14.6347 8.68002 13.0267C8.67595 12.7615 8.77741 12.5055 8.96207 12.3151C9.14673 12.1247 9.39947 12.0154 9.66469 12.0113C9.9299 12.0073 10.1859 12.1087 10.3763 12.2934C10.5667 12.478 10.676 12.7308 10.68 12.996C10.7094 14.948 10.2347 16.98 9.26535 19.084C8.24802 21.2947 6.49335 22.9173 4.04935 23.928C3.92801 23.9783 3.79796 24.0041 3.66663 24.0041C3.53529 24.0041 3.40524 23.9782 3.28391 23.928C3.16257 23.8777 3.05233 23.804 2.95946 23.7111C2.8666 23.6183 2.79294 23.508 2.74269 23.3867C2.69243 23.2653 2.66657 23.1353 2.66658 23.0039C2.66659 22.8726 2.69247 22.7426 2.74273 22.6212C2.793 22.4999 2.86668 22.3896 2.95955 22.2968C3.05242 22.2039 3.16268 22.1303 3.28402 22.08C4.56935 21.548 5.59735 20.8307 6.38002 19.92C4.16669 19.228 2.88402 17.7227 2.69469 15.4827C2.48135 12.972 3.40935 11.492 5.72402 9.66533L6.84002 8.81333L7.33335 8.42667C8.44269 7.53067 9.27602 6.648 9.83469 5.78667L9.83335 5.78933ZM15.6667 8H22.6667C23.687 7.99994 24.6687 8.38977 25.411 9.08971C26.1534 9.78966 26.6002 10.7468 26.66 11.7653L26.6667 12V13.3333L28 13.3573C28.3256 13.3572 28.6399 13.4761 28.8838 13.6918C29.1277 13.9074 29.2843 14.2049 29.324 14.528L29.3347 14.6907V17.3573C29.3347 17.68 29.2177 17.9917 29.0054 18.2347C28.793 18.4777 28.4998 18.6354 28.18 18.6787L28.0014 18.692L26.6667 18.6667V20C26.6667 21.0203 26.2769 22.002 25.577 22.7443C24.877 23.4867 23.9199 23.9335 22.9014 23.9933L22.6667 24H9.00002C8.74666 23.9999 8.50277 23.9037 8.31763 23.7307C8.1325 23.5577 8.01992 23.3209 8.00265 23.0682C7.98538 22.8154 8.06471 22.5655 8.2246 22.3689C8.38449 22.1724 8.61302 22.0439 8.86402 22.0093L9.00002 22H22.6667C23.1637 22 23.6428 21.815 24.0108 21.481C24.3788 21.147 24.6093 20.688 24.6574 20.1933L24.6667 20V12C24.6667 11.5028 24.4815 11.0235 24.1472 10.6554C23.8129 10.2874 23.3536 10.0571 22.8587 10.0093L22.6667 10H15.6667C15.4133 9.99992 15.1694 9.90367 14.9843 9.7307C14.7992 9.55773 14.6866 9.32093 14.6693 9.06816C14.6521 8.81538 14.7314 8.56548 14.8913 8.36893C15.0512 8.17239 15.2797 8.04387 15.5307 8.00933L15.6667 8H22.6667H15.6667Z" fill="#AAAAAA"/>
</svg>
