<svg width="32" height="32" viewBox="0 0 32 32" fill="none" xmlns="http://www.w3.org/2000/svg">
<path d="M3.20888 5.69778L8.16888 10.6667H3.55555C3.08405 10.6667 2.63187 10.854 2.29847 11.1874C1.96507 11.5208 1.77777 11.9729 1.77777 12.4444V19.5556C1.77777 20.0271 1.96507 20.4792 2.29847 20.8126C2.63187 21.146 3.08405 21.3333 3.55555 21.3333H8.12444L14.7111 27.9733C14.884 28.1333 15.087 28.2574 15.3083 28.3383C15.5295 28.4191 15.7647 28.4552 16 28.4444C16.2317 28.4445 16.4612 28.3992 16.6755 28.3111C17.0016 28.1772 17.2805 27.9493 17.4767 27.6565C17.673 27.3637 17.7778 27.0192 17.7778 26.6667V20.24L23.0133 25.4756C22.7911 25.6089 22.5778 25.7333 22.3467 25.8489C22.1357 25.955 21.9755 26.1405 21.9013 26.3647C21.8271 26.589 21.845 26.8335 21.9511 27.0444C22.0572 27.2554 22.2428 27.4156 22.467 27.4898C22.6912 27.564 22.9357 27.5461 23.1467 27.44C23.5462 27.2383 23.9349 27.0158 24.3111 26.7733L26.3378 28.8L27.5555 27.5556L4.44444 4.44444L3.20888 5.69778ZM16 26.6667L9.12888 19.76C8.95278 19.613 8.72664 19.5397 8.49777 19.5556H3.55555V12.4444H8.56888C8.68649 12.444 8.80283 12.4201 8.91116 12.3744C9.0195 12.3286 9.11767 12.2618 9.19999 12.1778L9.4311 11.9467L16 18.4978V26.6667Z" fill="#AAAAAA"/>
<path d="M22.1244 5.94667C23.6737 6.67029 25.0338 7.74391 26.0973 9.08288C27.1608 10.4218 27.8988 11.9896 28.253 13.6624C28.6072 15.3353 28.568 17.0676 28.1385 18.7227C27.7089 20.3778 26.9008 21.9105 25.7778 23.2L27.04 24.4622C28.3658 22.9711 29.3251 21.1911 29.8417 19.2639C30.3582 17.3367 30.4178 15.3155 30.0155 13.3613C29.6133 11.407 28.7604 9.5736 27.5247 8.00706C26.289 6.44052 24.7046 5.18409 22.8978 4.33778C22.7923 4.28312 22.6769 4.25016 22.5585 4.24085C22.44 4.23155 22.3209 4.24608 22.2082 4.2836C22.0954 4.32111 21.9914 4.38085 21.9021 4.45927C21.8129 4.5377 21.7402 4.63322 21.6885 4.74019C21.6368 4.84717 21.6071 4.96342 21.6011 5.08208C21.5951 5.20074 21.6129 5.3194 21.6536 5.43105C21.6942 5.5427 21.7568 5.64506 21.8377 5.7321C21.9186 5.81914 22.0161 5.88907 22.1244 5.93778V5.94667Z" fill="#AAAAAA"/>
<path d="M20.1689 11.2178C21.0055 11.7059 21.7005 12.4037 22.1852 13.2423C22.67 14.0809 22.9278 15.0314 22.9333 16C22.9333 17.1897 22.5465 18.3472 21.8311 19.2978L23.1111 20.56C24.1506 19.2679 24.7154 17.6583 24.7111 16C24.7053 14.7207 24.3662 13.4649 23.7271 12.3567C23.088 11.2484 22.171 10.3258 21.0667 9.68C20.9655 9.61569 20.8524 9.5725 20.7341 9.55304C20.6158 9.53359 20.4948 9.53826 20.3783 9.56678C20.2619 9.5953 20.1524 9.64708 20.0565 9.71901C19.9606 9.79093 19.8802 9.88152 19.8202 9.98531C19.7602 10.0891 19.7219 10.204 19.7074 10.323C19.6929 10.442 19.7027 10.5627 19.7361 10.6778C19.7695 10.7929 19.8259 10.9001 19.9018 10.9929C19.9777 11.0857 20.0716 11.1622 20.1778 11.2178H20.1689Z" fill="#AAAAAA"/>
<path d="M16 5.33333V13.4667L17.7778 15.2444V5.33333C17.7781 4.98098 17.6736 4.63649 17.4778 4.3436C17.2819 4.05072 17.0034 3.82264 16.6776 3.68834C16.3519 3.55404 15.9935 3.51957 15.6482 3.5893C15.3028 3.65903 14.9859 3.82983 14.7378 4.08L10.6667 8.15111L11.92 9.40444L16 5.33333Z" fill="#AAAAAA"/>
</svg>
