<svg width="32" height="32" viewBox="0 0 32 32" fill="none" xmlns="http://www.w3.org/2000/svg">
<path d="M20.8089 22.4444C20.6146 22.447 20.4248 22.3859 20.2685 22.2703C20.1123 22.1548 19.9982 21.9912 19.9437 21.8047C19.8893 21.6182 19.8975 21.4189 19.967 21.2375C20.0366 21.056 20.1637 20.9023 20.3289 20.8C21.1377 20.2951 21.802 19.5894 22.257 18.7515C22.712 17.9136 22.9422 16.9722 22.9252 16.0188C22.9082 15.0655 22.6446 14.1329 22.16 13.3117C21.6754 12.4906 20.9863 11.809 20.16 11.3333C20.0538 11.2778 19.9599 11.2013 19.884 11.1085C19.8081 11.0157 19.7517 10.9085 19.7183 10.7934C19.6849 10.6782 19.6752 10.5575 19.6896 10.4385C19.7041 10.3195 19.7425 10.2047 19.8025 10.1009C19.8624 9.99707 19.9428 9.90649 20.0387 9.83456C20.1346 9.76264 20.2441 9.71086 20.3605 9.68234C20.477 9.65381 20.598 9.64914 20.7163 9.6686C20.8346 9.68806 20.9477 9.73124 21.0489 9.79556C22.1368 10.4264 23.0433 11.3277 23.6803 12.412C24.3174 13.4963 24.6634 14.7268 24.6849 15.9842C24.7063 17.2416 24.4025 18.4832 23.8028 19.5886C23.2031 20.694 22.328 21.6257 21.2622 22.2933C21.1277 22.3841 20.971 22.4364 20.8089 22.4444Z" fill="#AAAAAA"/>
<path d="M22.7733 27.7156C22.5743 27.7144 22.3814 27.6464 22.2256 27.5226C22.0697 27.3988 21.96 27.2262 21.9139 27.0326C21.8678 26.8389 21.888 26.6354 21.9713 26.4547C22.0546 26.2739 22.1962 26.1263 22.3733 26.0356C24.238 25.1168 25.806 23.6909 26.8973 21.9217C27.9886 20.1524 28.5591 18.1113 28.5433 16.0326C28.5276 13.9539 27.9262 11.9217 26.8081 10.1692C25.6901 8.4167 24.1007 7.01484 22.2222 6.12444C22.1139 6.07574 22.0163 6.0058 21.9355 5.91877C21.8546 5.83173 21.792 5.72936 21.7513 5.61772C21.7107 5.50607 21.6929 5.38741 21.6989 5.26875C21.7049 5.15009 21.7346 5.03383 21.7863 4.92686C21.838 4.81989 21.9106 4.72436 21.9999 4.64594C22.0891 4.56751 22.1932 4.50778 22.3059 4.47026C22.4187 4.43275 22.5378 4.41821 22.6562 4.42752C22.7747 4.43683 22.8901 4.46978 22.9956 4.52444C25.1775 5.5545 27.0249 7.1787 28.3258 9.21074C29.6268 11.2428 30.3287 13.6004 30.3509 16.0131C30.3732 18.4258 29.715 20.796 28.4517 22.8517C27.1885 24.9074 25.3714 26.5654 23.2089 27.6356C23.0728 27.6985 22.9229 27.7261 22.7733 27.7156Z" fill="#AAAAAA"/>
<path d="M16 28.4978C15.7654 28.498 15.5331 28.4517 15.3165 28.3617C15.0998 28.2717 14.9032 28.1397 14.7378 27.9733L8.12444 21.3333H3.55555C3.08405 21.3333 2.63187 21.146 2.29847 20.8126C1.96507 20.4792 1.77777 20.0271 1.77777 19.5556V12.4444C1.77777 11.9729 1.96507 11.5208 2.29847 11.1874C2.63187 10.854 3.08405 10.6667 3.55555 10.6667H8.19555L14.7111 4.09778C14.9566 3.83935 15.2741 3.66068 15.6224 3.58497C15.9707 3.50926 16.3338 3.54 16.6644 3.67321C16.995 3.80642 17.278 4.03594 17.4765 4.33197C17.675 4.62801 17.78 4.97689 17.7778 5.33333V26.6667C17.7778 27.0192 17.673 27.3637 17.4767 27.6565C17.2805 27.9493 17.0016 28.1772 16.6755 28.3111C16.465 28.4175 16.2353 28.481 16 28.4978ZM3.55555 12.4444V19.5556H8.49777C8.61538 19.556 8.73172 19.5799 8.84005 19.6256C8.94839 19.6714 9.04656 19.7382 9.12888 19.8222L16 26.72V5.33333L9.19999 12.1778C9.11767 12.2618 9.0195 12.3286 8.91116 12.3744C8.80283 12.4201 8.68649 12.444 8.56888 12.4444H3.55555Z" fill="#AAAAAA"/>
</svg>
