<svg width="32" height="32" viewBox="0 0 32 32" fill="none" xmlns="http://www.w3.org/2000/svg">
<path d="M2.5 24.5H15V29H10V31H22V29H17V24.5H29.5C29.8977 24.4995 30.2789 24.3414 30.5601 24.0601C30.8414 23.7789 30.9995 23.3977 31 23V4.5C30.9995 4.10232 30.8414 3.72106 30.5601 3.43985C30.2789 3.15865 29.8977 3.00046 29.5 3H2.5C2.10232 3.00046 1.72106 3.15865 1.43985 3.43985C1.15865 3.72106 1.00046 4.10232 1 4.5V23C1.00046 23.3977 1.15865 23.7789 1.43985 24.0601C1.72106 24.3414 2.10232 24.4995 2.5 24.5ZM3 5H29V22.5H3V5Z" fill="#AAAAAA"/>
</svg>
