<svg width="32" height="32" viewBox="0 0 32 32" fill="none" xmlns="http://www.w3.org/2000/svg">
<path d="M25.3333 18.6667H22.6667V22.6667H18.6667V25.3333H22.6667V29.3333H25.3333V25.3333H29.3333V22.6667H25.3333V18.6667ZM5.33333 25.3333H9.33333V22.6667H6.66667V20H4V24C4 24.3536 4.14048 24.6928 4.39052 24.9428C4.64057 25.1929 4.97971 25.3333 5.33333 25.3333ZM25.3333 5.33333C25.3333 4.97971 25.1929 4.64057 24.9428 4.39052C24.6928 4.14048 24.3536 4 24 4H20V6.66667H22.6667V9.33333H25.3333V5.33333ZM6.66667 6.66667H9.33333V4H5.33333C4.97971 4 4.64057 4.14048 4.39052 4.39052C4.14048 4.64057 4 4.97971 4 5.33333V9.33333H6.66667V6.66667ZM4 12H6.66667V17.3333H4V12ZM22.6667 12H25.3333V16H22.6667V12ZM12 4H17.3333V6.66667H12V4ZM12 22.6667H16V25.3333H12V22.6667Z" fill="#AAAAAA"/>
</svg>
