<svg width="32" height="32" viewBox="0 0 32 32" fill="none" xmlns="http://www.w3.org/2000/svg">
<path d="M22 9.5625H2.51544C2.11776 9.56296 1.7365 9.72115 1.45529 10.0024C1.17409 10.2836 1.01591 10.6648 1.01544 11.0625V28.625C1.01591 29.0227 1.17409 29.4039 1.45529 29.6851C1.7365 29.9664 2.11776 30.1245 2.51544 30.125H22C22.3977 30.1245 22.7789 29.9664 23.0602 29.6851C23.3414 29.4039 23.4995 29.0227 23.5 28.625V11.0625C23.4995 10.6648 23.3414 10.2836 23.0602 10.0024C22.7789 9.72115 22.3977 9.56296 22 9.5625ZM21.5 11.5625V14.3888H3.01544V11.5625H21.5ZM3.01544 28.125V16.3888H21.5V28.125H3.01544Z" fill="#AAAAAA"/>
<path d="M29.5 2H9.5C9.10232 2.00046 8.72106 2.15865 8.43985 2.43985C8.15865 2.72106 8.00046 3.10232 8 3.5V7.5625H10V4H29V21.1964H25.5V23.1964H29.5C29.8977 23.196 30.2789 23.0378 30.5601 22.7566C30.8414 22.4754 30.9995 22.0941 31 21.6964V3.5C30.9995 3.10232 30.8414 2.72106 30.5601 2.43985C30.2789 2.15865 29.8977 2.00046 29.5 2Z" fill="#AAAAAA"/>
</svg>
